<?xml version="1.0" encoding="UTF-8"?><svg id="Layer_1" xmlns="http://www.w3.org/2000/svg" viewBox="0 0 1119.1 186.99"><defs><style>.cls-1{fill:#272932;}</style></defs><path class="cls-1" d="M1039.7,43.45c9.96-5.74,19.8-11.68,29.81-17.33,2.71-1.6,6.64,.89,6.48,4.01,.13,11.07,.05,22.14,.07,33.2,9.03,.01,18.06-.01,27.09,.01,2.38,10.15,4.68,20.33,7.08,30.48-11.43,.02-22.86-.01-34.28,.01,.04,14.07-.05,28.14,.04,42.21,.04,6.62,3.17,13.92,9.65,16.54,7.31,2.67,15.26,.34,22.17-2.5,3.66,9.15,7.4,18.27,11.29,27.32-13.15,9.15-30.38,11.37-45.79,7.59-13.67-2.94-26.41-11.65-32.47-24.47-3.84-7.86-4.43-16.77-4.17-25.38,.01-13.77,0-27.54,.01-41.31-5.89,0-11.76-.03-17.64,.02-.02-10.18-.01-20.36,0-30.54,5.88,.05,11.76,.02,17.64,.02,.03-5.1-.06-10.21,.02-15.31-.16-2.04,1.24-3.74,3-4.57Z"/><path class="cls-1" d="M993.78,26.52c2.71-2.07,7.21,.36,7.01,3.74,.27,50.82-.11,101.64,.01,152.46-13.11,0-26.21,.01-39.32,0,.09-44.9-.06-89.81,.05-134.71-.11-1.85,1.04-3.48,2.69-4.25,9.85-5.74,19.67-11.56,29.56-17.24Z"/><path class="cls-1" d="M842.19,61.13c2.78-2.01,7.36,.45,6.95,3.94,.04,23.66,0,47.32,.02,70.98,.09,5.32,1.42,11.02,5.28,14.91,3.66,3.53,9.14,4,13.94,3.27,8.99-1.32,16.96-5.96,24.79-10.29,.07-20.31-.12-40.62-.04-60.93-.14-1.88,.94-3.71,2.63-4.53,9.92-5.81,19.82-11.65,29.79-17.38,2.82-2,7.13,.54,6.95,3.93,.17,39.3-.06,78.6,.02,117.91-7.33,.02-14.66,0-21.98,0-3.08-4.26-6.2-8.49-9.23-12.77-12.18,7.84-25.76,13.84-40.1,16.25-11.1,1.26-23.15,.72-32.94-5.22-7.74-4.82-13.24-12.74-15.69-21.46-3.74-11.52-2.89-23.74-2.97-35.66-.01-13.67,0-27.33,.04-41-.22-2.07,1.08-3.92,2.91-4.79,9.88-5.71,19.71-11.53,29.63-17.17Z"/><path class="cls-1" d="M718.88,57.94c15.85-2.47,33.28-1.56,46.93,7.7,12.45,8.08,19.6,22.77,19.73,37.45,.09,26.53-.02,53.06,.06,79.6-7.32,.09-14.64-.01-21.96,.05-3.15-4.24-6.23-8.52-9.3-12.82-7.16,8.16-16.76,15.27-27.98,15.78-10.3,.3-21.11-1.07-30.01-6.61-9.24-5.85-15-16.23-16.35-26.96-1.12-9.36-.53-19.51,4.67-27.67,4.8-7.55,13.17-11.94,21.52-14.43,12.83-3.82,26.34-2.33,39.52-2.63-.63-5.16-2.4-10.63-6.89-13.69-5.95-4.35-13.79-3.28-20.61-2.3-7.93,1.37-15.79,3.51-23.06,6.99-3.56-10.11-7.07-20.24-10.64-30.34,10.64-5.64,22.56-8.28,34.37-10.12Zm-6.11,86.17c-.28,6.16,5.57,11.42,11.56,11.4,8.14,.05,15.7-4.04,21.67-9.31-.07-5.01-.02-10.02-.03-15.03-6.9,.03-13.79-.12-20.68,.03-6.73,.16-12.52,6.21-12.52,12.91Z"/><path class="cls-1" d="M500.23,13.46c13.02-1.67,26.08-3.06,39.11-4.61,15.04,41.19,30.19,82.34,45.23,123.53,14.85-40.27,29.38-80.66,44.08-120.99,13.04-.05,26.07,.01,39.11-.03-21.75,57.07-43.51,114.14-65.18,171.25-12.36,.11-24.73,.03-37.1,.04-21.79-56.38-43.39-112.84-65.25-169.19Z"/><path class="cls-1" d="M394.72,57.36c2.48-1.97,6.49-.28,7.1,2.73,.21,2.83,.01,5.67,.19,8.5,13.7-7.75,29.38-13.17,45.32-11.91,9.2,.5,18.67,3.45,25.24,10.2,9.87,9.59,12.52,24.04,12.86,37.26,0,26.2,.13,52.4-.07,78.59-13.09-.02-26.19,0-39.28-.01,.03-24.89,0-49.78,0-74.67,.03-5.52-1.05-11.54-5.09-15.59-3.53-3.54-8.95-4.11-13.66-3.45-9.15,1.3-17.25,6.03-25.26,10.34,0,27.79-.03,55.58,.02,83.37-13.19,0-26.38,.01-39.57,0,.07-34.57,0-69.14,.03-103.7-.15-2.09,1.26-3.84,3.06-4.71,9.72-5.62,19.36-11.37,29.1-16.95Z"/><path class="cls-1" d="M310.79,.8c12.9-3.87,27.51,6.84,27.49,20.32,.93,11.63-9.39,22.52-20.98,22.58-11.81,.82-22.84-9.86-22.54-21.66-.28-9.64,6.81-18.72,16.03-21.24Z"/><path class="cls-1" d="M299.28,78.84c10.06-5.87,20.08-11.82,30.2-17.6,2.71-1.76,6.86,.68,6.65,3.9,.12,39.19,.02,78.39,.07,117.59-13.13,0-26.27-.03-39.41,0,.04-33.18-.05-66.36,.06-99.54-.09-1.77,.83-3.55,2.43-4.36Z"/><path class="cls-1" d="M196.87,57.88c18.41-2.78,38.32-.65,54.35,9.39,13.88,8.62,23.25,23.61,25.78,39.67,2.69,16.78,1.32,35.11-8.01,49.76-8.64,14.1-23.64,23.52-39.68,26.87-17.71,3.58-36.85,2.54-53.39-5.14-14.28-6.51-25.1-19.62-29.42-34.64-3.82-13.24-3.95-27.52-.72-40.9,3.7-15.33,13.91-28.94,27.64-36.72,7.21-4.2,15.23-6.92,23.45-8.29Zm5.95,32.94c-7.14,2.26-12.92,7.99-15.71,14.89-2.85,7.07-3.38,14.96-2.32,22.47,1.16,7.99,5,15.98,11.79,20.65,6.03,4.28,13.95,4.93,21.01,3.4,6.94-1.55,12.76-6.6,15.94-12.88,3.97-7.75,4.55-16.84,3.26-25.33-1.19-7.48-4.57-14.98-10.72-19.66-6.47-5.09-15.54-5.96-23.25-3.54Z"/><path class="cls-1" d="M43.43,18.25c16.15-8.83,35.18-11.59,53.32-9.29,12.67,1.81,25.38,5.08,36.47,11.67-3.82,9.18-7.94,18.23-11.82,27.38-11.63-4-23.67-7.63-36.1-7.33-12.98-.17-25.21,7.12-32.78,17.4-8.18,10.84-11.61,24.57-11.69,38-.38,15.03,3.67,30.54,13.18,42.39,6.41,8.08,15.99,13.68,26.3,14.76,13.74,1.29,27.57-2.2,39.84-8.27,4.98,9.81,9.85,19.68,14.9,29.46-18.05,9.05-38.71,12.61-58.79,11.25-19.17-1.27-38.29-8.74-51.9-22.55C10.79,149.59,3.12,131,.87,112.14c-2.38-19.83-.05-40.6,8.84-58.66,7.22-14.87,19.15-27.41,33.72-35.23Z"/></svg>