<svg xmlns="http://www.w3.org/2000/svg" viewBox="0 0 298.98 41.22"><defs><style>.cls-1{fill:#fff;}</style></defs><g id="Layer_2" data-name="Layer 2"><g id="Layer_1-2" data-name="Layer 1"><path class="cls-1" d="M23.64,17.7a4.32,4.32,0,1,0,0,6.12L35,35.28a20.61,20.61,0,1,1,.12-29.1Z"/><path class="cls-1" d="M53.82.06a20.58,20.58,0,1,1-20.58,20.7A20.68,20.68,0,0,1,53.82.06Zm0,25a4.32,4.32,0,1,0-4.32-4.32A4.3,4.3,0,0,0,53.82,25.08Z"/><path class="cls-1" d="M93.12,40.08H77.28V1.2H93.12Z"/><path class="cls-1" d="M131.82,41.22,112.56,28.44V40.08H96.72V0L116,12.84V1.2h15.84Z"/><path class="cls-1" d="M157.62,1.2h16.56l-20.28,40-20.28-40h16.56l3.72,7.44Z"/><path class="cls-1" d="M180.48,33.06l-3.54,7H160.38l20.1-40,20,40H184Z"/><path class="cls-1" d="M234.54,23.64c0,10.38-8.28,17.58-18.06,17.58-10,0-17.94-7.08-17.94-17.7V1.2h15.84V23.28a2.08,2.08,0,0,0,2.16,2.16,2.16,2.16,0,0,0,2.16-2.34V1.2h15.84Z"/><path class="cls-1" d="M254,26h14.87v14H238.14V1.2H254Z"/><path class="cls-1" d="M264.66,1.2H299v14h-9.24V40.08H273.9V15.24h-9.24Z"/></g></g></svg>