<?xml version="1.0" encoding="UTF-8"?><svg id="Layer_1" xmlns="http://www.w3.org/2000/svg" viewBox="0 0 425.4 504.35"><defs><style>.cls-1{fill:#d8d6cd;}</style></defs><path id="coinvault" class="cls-1" d="M215.63,.77c4.98-1.76,10.36-.33,14.63,2.46,60.21,34.79,120.42,69.55,180.66,104.26,3.28,1.95,6.81,3.63,9.68,6.22,5.33,4.92,6.38,13.74,2.34,19.76-3.47,4.68-9.07,6.87-13.89,9.79-30.9,17.81-61.79,35.68-92.71,53.52-4.78,2.61-11.06,2.69-15.69-.33-23.96-13.62-47.74-27.57-71.66-41.3-5.09-3.28-11.8-3.18-16.92,.02-24.27,14.07-48.68,27.94-72.89,42.12-5.25,2.93-7.22,9.21-6.98,14.91,0,26.69-.02,53.4,0,80.09-.37,6.2,2.59,12.6,8.19,15.57,22.81,13.15,45.61,26.28,68.38,39.51,11.52,6.11,12.3,6.04,23.8-.2,22.63-13.25,45.44-26.16,68.07-39.39,5.17-3.22,11.92-2.71,16.95,.53,33.4,19.28,66.8,38.53,100.19,57.85,9.54,5.21,10.24,20.6,.7,26.18-61.85,35.84-123.83,71.45-185.68,107.29-5.6,3.92-13.21,6.81-19.57,2.77-68.52-39.39-136.88-79.04-205.36-118.49-5.56-2.95-8.27-9.44-7.82-15.55C.05,290.94,.03,213.51,.05,136.09c-.37-6.03,2.13-12.53,7.61-15.53C73.66,82.48,139.63,44.33,205.61,6.23c3.31-1.87,6.47-4.06,10.02-5.46Z"/></svg>